<svg id="Layer_1" data-name="Layer 1" xmlns="http://www.w3.org/2000/svg" viewBox="0 0 1146 979.59"><defs><style>.cls-1{fill:#2aa791;}.cls-2{fill:#f15419;}.cls-3{fill:#f28933;}.cls-4{fill:#186074;}.cls-5{fill:#020202;}</style></defs><title>smo</title><polygon class="cls-1" points="545.5 0 179.96 211.05 545.5 422.09 545.5 0"/><polygon class="cls-2" points="993.54 680.77 993.54 258.68 628 469.72 993.54 680.77"/><polygon class="cls-3" points="966.04 211.05 600.5 0 600.5 422.09 966.04 211.05"/><polygon class="cls-4" points="152.46 258.68 152.46 680.77 518 469.72 152.46 258.68"/><polygon class="cls-5" points="725.5 589.69 572.29 501.48 420.5 589.69 495.67 632.97 495.67 786.72 573 786.72 650.33 786.72 650.33 633.38 725.5 589.69"/><path d="M270.43,1185.61a28.59,28.59,0,0,0-7.8-6.9,48.88,48.88,0,0,0-9.06-4.23,82.9,82.9,0,0,0-9.72-2.74q-4.72-1-9.43-2l-.31-.06c-3.75-.58-7.45-1.28-11-2.05a34.13,34.13,0,0,1-8.37-2.91,13.05,13.05,0,0,1-4.79-4.05,10.49,10.49,0,0,1-1.5-6.09,12.3,12.3,0,0,1,1.42-6.18,13.94,13.94,0,0,1,4-4.56,19.69,19.69,0,0,1,6.24-2.95,28.57,28.57,0,0,1,15.69.08,25.94,25.94,0,0,1,7.29,3.28,19.11,19.11,0,0,1,5.24,5.06,12.79,12.79,0,0,1,2.24,6.18l.6,5.74,21.1-1.4-.61-6.17a34.25,34.25,0,0,0-2.67-10.42,36.05,36.05,0,0,0-5.36-8.67,40.27,40.27,0,0,0-7.34-6.8,46.54,46.54,0,0,0-8.65-4.91,51.77,51.77,0,0,0-9.38-3,49.13,49.13,0,0,0-9.7-1.16h-.11a49.38,49.38,0,0,0-14.6,2.2,42.25,42.25,0,0,0-13,6.58,35.49,35.49,0,0,0-9.6,11,32.46,32.46,0,0,0-4,15.43,36.05,36.05,0,0,0,1.77,12.3,28.67,28.67,0,0,0,5.37,9.46,30.66,30.66,0,0,0,8,6.54,50.84,50.84,0,0,0,9.05,4,86.71,86.71,0,0,0,9.56,2.6c3.12.66,6.25,1.29,9.37,1.86,2.46.43,5,.91,7.56,1.41a65,65,0,0,1,6.61,1.66,28.37,28.37,0,0,1,5.15,2.15,12.28,12.28,0,0,1,3.26,2.53,8.41,8.41,0,0,1,1.74,3.12,12.5,12.5,0,0,1,.34,4.85v.16a15.32,15.32,0,0,1-2.31,7.51,19.79,19.79,0,0,1-5.6,5.75,28,28,0,0,1-8.05,3.74,32.92,32.92,0,0,1-18.42,0,30.08,30.08,0,0,1-8.33-3.78,21.78,21.78,0,0,1-6-5.87,16.93,16.93,0,0,1-2.83-7.71l-.76-6-20.49,2.67.64,5.84a36.17,36.17,0,0,0,5.65,16.16,42,42,0,0,0,11.16,11.47,49.56,49.56,0,0,0,14.46,6.85,56.39,56.39,0,0,0,15.8,2.28,55,55,0,0,0,16.14-2.42,48.41,48.41,0,0,0,14.42-7.13,40.33,40.33,0,0,0,10.79-11.77,35.09,35.09,0,0,0,4.9-16.17,35.65,35.65,0,0,0-.93-12.58A28.15,28.15,0,0,0,270.43,1185.61Z" transform="translate(-182.24 -265.89)"/><polygon points="199.56 854.88 189.37 854.88 156.66 941.46 124.02 854.88 113.83 854.88 109.4 854.88 100.25 854.88 100.25 977.62 121.4 977.62 121.4 907.87 148.3 977.62 165.09 977.62 191.99 907.88 191.99 977.62 213.14 977.62 213.14 854.88 203.99 854.88 199.56 854.88"/><path d="M510.59,1182.1a85,85,0,0,0-1.38-15.23,71.57,71.57,0,0,0-4.3-14.63,64.81,64.81,0,0,0-7.3-13.06A50.15,50.15,0,0,0,487,1128.4a49.3,49.3,0,0,0-13.78-7.16,52.64,52.64,0,0,0-16.83-2.59,51.72,51.72,0,0,0-16.78,2.63,49.12,49.12,0,0,0-24.38,18,65.65,65.65,0,0,0-7.29,13.08,73.24,73.24,0,0,0-4.33,14.55,81.75,81.75,0,0,0-1.43,15.16,87.34,87.34,0,0,0,1.38,15.52,72.84,72.84,0,0,0,4.25,14.69,62.58,62.58,0,0,0,7.24,13A48.06,48.06,0,0,0,439.5,1243a54.77,54.77,0,0,0,16.87,2.49,52.41,52.41,0,0,0,16.75-2.58,49.25,49.25,0,0,0,13.78-7.16A50.53,50.53,0,0,0,497.52,1225a63.85,63.85,0,0,0,7.31-13,73.31,73.31,0,0,0,4.33-14.6A82.85,82.85,0,0,0,510.59,1182.1Zm-69.09-38.9c4-2.25,9-3.39,14.88-3.39a31.72,31.72,0,0,1,10.5,1.63,28.34,28.34,0,0,1,8.19,4.42,30,30,0,0,1,6.21,6.69,42.29,42.29,0,0,1,4.54,8.75,53.22,53.22,0,0,1,2.72,10.1,64,64,0,0,1,0,21.4,52.48,52.48,0,0,1-2.75,10.12,45.1,45.1,0,0,1-4.64,9,30,30,0,0,1-6.28,6.82,29.22,29.22,0,0,1-8.2,4.52,30.17,30.17,0,0,1-10.29,1.65,32,32,0,0,1-10.58-1.63,27.76,27.76,0,0,1-8.16-4.44,30,30,0,0,1-6.21-6.79,43.82,43.82,0,0,1-4.56-8.89,52.09,52.09,0,0,1-2.68-10.15,68.75,68.75,0,0,1-.87-10.86,66,66,0,0,1,2-16.2,41.43,41.43,0,0,1,6-13.53A29.94,29.94,0,0,1,441.5,1143.2Z" transform="translate(-182.24 -265.89)"/><rect x="323.7" y="955.02" width="22.82" height="22.6"/><path d="M619.57,1185.61a28.59,28.59,0,0,0-7.8-6.9,48.88,48.88,0,0,0-9.06-4.23,82.9,82.9,0,0,0-9.72-2.74q-4.72-1-9.43-2l-.31-.06c-3.75-.58-7.45-1.28-11-2.05a34.13,34.13,0,0,1-8.37-2.91,13.05,13.05,0,0,1-4.79-4.05,10.49,10.49,0,0,1-1.5-6.09,12.3,12.3,0,0,1,1.42-6.18,13.94,13.94,0,0,1,4-4.56,19.69,19.69,0,0,1,6.24-2.95A28.57,28.57,0,0,1,585,1141a25.94,25.94,0,0,1,7.29,3.28,19.11,19.11,0,0,1,5.24,5.06,12.79,12.79,0,0,1,2.24,6.18l.6,5.74,21.1-1.4-.61-6.17a34.25,34.25,0,0,0-2.67-10.42,36.05,36.05,0,0,0-5.36-8.67,40.27,40.27,0,0,0-7.34-6.8,46.54,46.54,0,0,0-8.65-4.91,51.77,51.77,0,0,0-9.38-3,49.13,49.13,0,0,0-9.7-1.16h-.11a49.38,49.38,0,0,0-14.6,2.2,42.25,42.25,0,0,0-13,6.58,35.49,35.49,0,0,0-9.6,11,32.46,32.46,0,0,0-4,15.43,36.05,36.05,0,0,0,1.77,12.3,28.67,28.67,0,0,0,5.37,9.46,30.66,30.66,0,0,0,8,6.54,50.84,50.84,0,0,0,9.05,4,86.71,86.71,0,0,0,9.56,2.6c3.12.66,6.25,1.29,9.37,1.86,2.46.43,5,.91,7.56,1.41a65,65,0,0,1,6.61,1.66,28.37,28.37,0,0,1,5.15,2.15,12.28,12.28,0,0,1,3.26,2.53,8.41,8.41,0,0,1,1.74,3.12,12.5,12.5,0,0,1,.34,4.85v.16a15.32,15.32,0,0,1-2.31,7.51,19.79,19.79,0,0,1-5.6,5.75,28,28,0,0,1-8.05,3.74,32.92,32.92,0,0,1-18.42,0,30.08,30.08,0,0,1-8.33-3.78,21.78,21.78,0,0,1-6-5.87,16.93,16.93,0,0,1-2.83-7.71l-.76-6-20.49,2.67.64,5.84a36.17,36.17,0,0,0,5.65,16.16,42,42,0,0,0,11.16,11.47,49.56,49.56,0,0,0,14.46,6.85,56.39,56.39,0,0,0,15.8,2.28,55,55,0,0,0,16.14-2.42,48.41,48.41,0,0,0,14.42-7.13,40.33,40.33,0,0,0,10.79-11.77,35.09,35.09,0,0,0,4.9-16.17,35.65,35.65,0,0,0-.93-12.58A28.15,28.15,0,0,0,619.57,1185.61Z" transform="translate(-182.24 -265.89)"/><path d="M732.16,1152.24a64.81,64.81,0,0,0-7.3-13.06,50.15,50.15,0,0,0-10.62-10.79,49.3,49.3,0,0,0-13.78-7.16,52.64,52.64,0,0,0-16.83-2.59,51.72,51.72,0,0,0-16.78,2.63,49.12,49.12,0,0,0-24.38,18,65.65,65.65,0,0,0-7.29,13.08,73.24,73.24,0,0,0-4.33,14.55,81.75,81.75,0,0,0-1.43,15.16,87.34,87.34,0,0,0,1.38,15.52,72.84,72.84,0,0,0,4.25,14.69,62.58,62.58,0,0,0,7.24,13A48.06,48.06,0,0,0,666.75,1243a54.77,54.77,0,0,0,16.87,2.49,52.41,52.41,0,0,0,16.75-2.58,49.25,49.25,0,0,0,13.78-7.16A50.53,50.53,0,0,0,724.77,1225a63.85,63.85,0,0,0,7.31-13,73.31,73.31,0,0,0,4.33-14.6,82.85,82.85,0,0,0,1.43-15.26,85,85,0,0,0-1.38-15.23A71.57,71.57,0,0,0,732.16,1152.24Zm-63.41-9c4-2.25,9-3.39,14.88-3.39a31.72,31.72,0,0,1,10.5,1.63,28.34,28.34,0,0,1,8.19,4.42,30,30,0,0,1,6.21,6.69,42.29,42.29,0,0,1,4.54,8.75,53.22,53.22,0,0,1,2.72,10.1,64,64,0,0,1,0,21.4,52.48,52.48,0,0,1-2.75,10.12,45.1,45.1,0,0,1-4.64,9,30,30,0,0,1-6.28,6.82,29.22,29.22,0,0,1-8.2,4.52,30.17,30.17,0,0,1-10.29,1.65,32,32,0,0,1-10.58-1.63,27.76,27.76,0,0,1-8.16-4.44,30,30,0,0,1-6.21-6.79,43.77,43.77,0,0,1-4.56-8.89,52.09,52.09,0,0,1-2.68-10.15,68.75,68.75,0,0,1-.87-10.86,66,66,0,0,1,2-16.2,41.41,41.41,0,0,1,6-13.53A29.94,29.94,0,0,1,668.75,1143.2Z" transform="translate(-182.24 -265.89)"/><polygon points="581.83 854.88 560.67 854.88 560.67 978.11 641.63 977.58 641.63 956.91 581.83 956.91 581.83 854.88"/><path d="M894.29,1183.54c0,3.5,0,7-.15,10.54a55.7,55.7,0,0,1-1.06,9.39,33.46,33.46,0,0,1-2.82,8.25,21.92,21.92,0,0,1-5.23,6.63,24.34,24.34,0,0,1-7.63,4.44,26.69,26.69,0,0,1-9.06,1.54,23.8,23.8,0,0,1-16.25-5.92,22,22,0,0,1-5.29-6.67,33.45,33.45,0,0,1-2.82-8.25,53.24,53.24,0,0,1-1-9.35c-.07-3.51-.11-7.08-.11-10.58v-62.77H821.71v62.77c0,4.44.1,8.84.31,13.08a70,70,0,0,0,1.91,13.29,52.22,52.22,0,0,0,5,12.7,45.56,45.56,0,0,0,23.28,19.95,45.79,45.79,0,0,0,16.19,2.92,47.08,47.08,0,0,0,16.65-2.92,45.46,45.46,0,0,0,14-8.34,42.12,42.12,0,0,0,9.3-11.48,51.74,51.74,0,0,0,4.88-12.85,76.86,76.86,0,0,0,1.89-13.34c.23-4.29.35-8.67.35-13v-62.77H894.29Z" transform="translate(-182.24 -265.89)"/><polygon points="737.23 876.04 762.7 876.04 762.7 977.62 783.86 977.62 783.86 876.04 808.92 876.04 808.92 854.88 737.23 854.88 737.23 876.04"/><rect x="814.7" y="854.88" width="21.16" height="122.74"/><path d="M1125.75,1152.24a64.81,64.81,0,0,0-7.3-13.06,50.15,50.15,0,0,0-10.62-10.79,49.3,49.3,0,0,0-13.78-7.16,52.64,52.64,0,0,0-16.83-2.59,51.72,51.72,0,0,0-16.78,2.63,49.12,49.12,0,0,0-24.38,18,65.65,65.65,0,0,0-7.29,13.08,73.24,73.24,0,0,0-4.33,14.55,81.75,81.75,0,0,0-1.43,15.16,87.34,87.34,0,0,0,1.38,15.52,72.84,72.84,0,0,0,4.25,14.69,62.58,62.58,0,0,0,7.24,13,48.06,48.06,0,0,0,24.46,17.66,54.77,54.77,0,0,0,16.87,2.49,52.41,52.41,0,0,0,16.75-2.58,49.25,49.25,0,0,0,13.78-7.16,50.53,50.53,0,0,0,10.61-10.73,63.85,63.85,0,0,0,7.31-13,73.31,73.31,0,0,0,4.33-14.6,82.85,82.85,0,0,0,1.43-15.26,85,85,0,0,0-1.38-15.23A71.57,71.57,0,0,0,1125.75,1152.24Zm-63.41-9c4-2.25,9-3.39,14.88-3.39a31.72,31.72,0,0,1,10.5,1.63,28.34,28.34,0,0,1,8.19,4.42,30,30,0,0,1,6.21,6.69,42.29,42.29,0,0,1,4.54,8.75,53.22,53.22,0,0,1,2.72,10.1,64,64,0,0,1,0,21.4,52.48,52.48,0,0,1-2.75,10.12,45.1,45.1,0,0,1-4.64,9,30,30,0,0,1-6.28,6.82,29.22,29.22,0,0,1-8.2,4.52,30.17,30.17,0,0,1-10.29,1.65,32,32,0,0,1-10.58-1.63,27.76,27.76,0,0,1-8.16-4.44,30,30,0,0,1-6.21-6.79,43.82,43.82,0,0,1-4.56-8.89A52.09,52.09,0,0,1,1045,1193a68.75,68.75,0,0,1-.87-10.86,66,66,0,0,1,2-16.2,41.43,41.43,0,0,1,6-13.53A29.94,29.94,0,0,1,1062.34,1143.2Z" transform="translate(-182.24 -265.89)"/><polygon points="1026.55 936.53 973.28 854.88 953.96 854.88 953.96 977.62 975.12 977.62 975.12 896.49 1028.33 977.62 1047.64 977.62 1047.64 854.88 1026.55 854.88 1026.55 936.53"/><path d="M1327.14,1195.4a28.15,28.15,0,0,0-4.83-9.79,28.59,28.59,0,0,0-7.8-6.9,48.88,48.88,0,0,0-9.06-4.23,82.9,82.9,0,0,0-9.72-2.74q-4.72-1-9.43-2l-.31-.06c-3.75-.58-7.45-1.28-11-2.05a34.13,34.13,0,0,1-8.37-2.91,13.05,13.05,0,0,1-4.79-4.05,10.49,10.49,0,0,1-1.5-6.09,12.3,12.3,0,0,1,1.42-6.18,13.94,13.94,0,0,1,4-4.56,19.69,19.69,0,0,1,6.24-2.95,28.57,28.57,0,0,1,15.69.08,25.94,25.94,0,0,1,7.29,3.28,19.11,19.11,0,0,1,5.24,5.06,12.79,12.79,0,0,1,2.24,6.18l.6,5.74,21.1-1.4-.61-6.17a34.25,34.25,0,0,0-2.67-10.42,36.05,36.05,0,0,0-5.36-8.67,40.27,40.27,0,0,0-7.34-6.8,46.54,46.54,0,0,0-8.65-4.91,51.77,51.77,0,0,0-9.38-3,49.13,49.13,0,0,0-9.7-1.16h-.11a49.38,49.38,0,0,0-14.6,2.2,42.25,42.25,0,0,0-13,6.58,35.49,35.49,0,0,0-9.6,11,32.46,32.46,0,0,0-4,15.43,36.05,36.05,0,0,0,1.77,12.3,28.67,28.67,0,0,0,5.37,9.46,30.66,30.66,0,0,0,8,6.54,50.84,50.84,0,0,0,9.05,4,86.71,86.71,0,0,0,9.56,2.6c3.11.66,6.25,1.29,9.37,1.86,2.46.43,5,.91,7.56,1.41a65.09,65.09,0,0,1,6.61,1.66,28.37,28.37,0,0,1,5.15,2.15,12.28,12.28,0,0,1,3.26,2.53,8.41,8.41,0,0,1,1.74,3.12,12.5,12.5,0,0,1,.34,4.85v.16a15.32,15.32,0,0,1-2.31,7.51,19.79,19.79,0,0,1-5.6,5.75,28,28,0,0,1-8.05,3.74,32.92,32.92,0,0,1-18.42,0,30.08,30.08,0,0,1-8.33-3.78,21.78,21.78,0,0,1-6-5.87,16.93,16.93,0,0,1-2.83-7.71l-.76-6-20.49,2.67.64,5.84a36.17,36.17,0,0,0,5.65,16.16,42,42,0,0,0,11.16,11.47,49.56,49.56,0,0,0,14.46,6.85,56.39,56.39,0,0,0,15.8,2.28,55,55,0,0,0,16.14-2.42,48.41,48.41,0,0,0,14.42-7.13,40.33,40.33,0,0,0,10.79-11.77,35.09,35.09,0,0,0,4.9-16.17A35.65,35.65,0,0,0,1327.14,1195.4Z" transform="translate(-182.24 -265.89)"/></svg>